<svg width="50" height="50" viewBox="0 0 112 112" xmlns="http://www.w3.org/2000/svg">
  <path fill="black" stroke="none" d=" M 11 17 L 10 18 L 9 18 L 6 21 L 6 23 L 5 24 L 5 30 L 4 31 L 2 31 L 0 33 L 0 37 L 1 37 L 3 39 L 4 39 L 5 40 L 5 41 L 6 42 L 6 44 L 9 47 L 10 47 L 11 48 L 56 48 L 57 47 L 59 47 L 61 45 L 61 44 L 62 43 L 62 40 L 63 39 L 65 39 L 67 37 L 68 37 L 68 33 L 66 31 L 64 31 L 62 29 L 62 22 L 61 21 L 61 20 L 59 18 L 57 18 L 56 17 L 50 17 L 49 18 L 45 18 L 44 17 L 37 17 L 36 18 L 32 18 L 31 17 L 24 17 L 23 18 L 22 18 L 21 19 L 20 18 L 19 18 L 18 17 Z M 41 39 L 42 38 L 43 39 L 42 40 Z M 14 39 L 15 38 L 16 39 L 27 39 L 28 38 L 29 38 L 30 39 L 39 39 L 40 40 L 40 41 L 41 42 L 42 42 L 42 40 L 43 39 L 60 39 L 61 40 L 60 41 L 60 42 L 57 45 L 56 44 L 56 42 L 55 42 L 54 43 L 55 44 L 56 44 L 57 45 L 56 46 L 55 46 L 54 47 L 14 47 L 13 46 L 11 46 L 7 42 L 7 40 L 8 39 Z M 45 43 L 44 44 L 44 45 L 45 45 Z M 37 43 L 36 44 L 35 44 L 36 45 L 37 45 L 38 44 Z M 27 43 L 26 44 L 27 45 L 28 45 L 28 44 Z M 19 43 L 18 44 L 18 45 L 20 45 L 20 44 Z M 50 41 L 50 43 L 51 43 L 51 41 Z M 31 41 L 31 43 L 33 43 L 33 41 Z M 23 41 L 23 43 L 24 43 L 25 42 L 25 41 Z M 13 41 L 12 42 L 13 43 L 14 43 L 14 41 Z M 45 35 L 46 34 L 54 34 L 55 35 L 55 36 L 54 37 L 50 37 L 49 38 L 47 38 L 45 36 Z M 32 34 L 42 34 L 43 35 L 41 37 L 37 37 L 36 38 L 34 38 L 33 37 L 31 37 L 30 36 Z M 18 35 L 19 34 L 28 34 L 29 35 L 27 37 L 23 37 L 22 38 L 21 38 L 20 37 L 19 37 L 18 36 Z M 63 32 L 64 33 L 65 33 L 66 34 L 66 36 L 65 37 L 61 37 L 60 38 L 58 38 L 57 37 L 57 35 L 58 34 L 61 34 Z M 4 33 L 5 32 L 7 34 L 15 34 L 16 35 L 14 37 L 10 37 L 9 38 L 8 38 L 7 37 L 3 37 L 2 36 L 2 34 L 3 33 Z M 13 19 L 14 18 L 16 18 L 17 19 L 18 19 L 20 21 L 19 22 L 19 23 L 18 24 L 18 26 L 19 27 L 20 27 L 20 25 L 21 24 L 21 22 L 23 20 L 24 20 L 25 19 L 26 19 L 27 18 L 28 18 L 29 19 L 31 19 L 32 20 L 32 21 L 31 22 L 31 24 L 30 25 L 30 26 L 31 27 L 32 27 L 33 26 L 33 22 L 35 20 L 36 20 L 37 19 L 38 19 L 39 18 L 41 18 L 42 19 L 43 19 L 45 21 L 44 22 L 44 23 L 43 24 L 43 26 L 44 27 L 45 27 L 45 24 L 46 23 L 46 22 L 48 20 L 49 20 L 50 19 L 51 19 L 52 18 L 54 18 L 55 19 L 56 19 L 60 23 L 60 25 L 61 26 L 61 31 L 60 32 L 8 32 L 7 31 L 7 23 L 11 19 Z"/>
</svg>

